<svg xmlns="http://www.w3.org/2000/svg" viewBox="0 0 16 16" shape-rendering="crispEdges">
  <path fill="#9c4cff33" d="M7 0h2v1h2v2h2v2h2v2h1v2h-1v2h-2v2h-2v2H9v1H7v-1H5v-2H3v-2H1v-2H0V7h1V5h2V3h2V1h2z"/>
  <path fill="#150836eb" d="M7 1h2v1h2v2h2v2h2v4h-2v2h-2v2H9v1H7v-1H5v-2H3v-2H1V6h2V4h2V2h2z"/>
  <path fill="#f7eaff" d="M7 0h2v1h2v2h2v2h2v2h1v2h-1v2h-2v2h-2v2H9v1H7v-1H5v-2H3v-2H1v-2H0V7h1V5h2V3h2V1h2z"/>
  <path fill="#ff64f2" d="M7 1h1v13H6v-2H4v-2H2V6h2V4h2V2h1z"/>
  <path fill="#9b45ff" d="M8 1h1v2h2v2h2v2h1v3h-2v2h-2v2H8z"/>
  <path fill="#5c20e5" d="M10 5h2v2h2v3h-2v2h-2v2H9v-4h1z"/>
  <path fill="#fff7ff" d="M6 2h2v2H5V3h1zM4 5h3v2H2V6h2z"/>
  <path fill="#55e7ff" d="M9 6h2v4H9z"/>
  <path fill="#fff" d="M12 5h1v1h-1zM5 1h1v1H5zM7 14h2v1H7z"/>
</svg>
