<svg xmlns="http://www.w3.org/2000/svg" viewBox="0 0 64 64" shape-rendering="crispEdges">
  <rect width="64" height="64" fill="none"/>
  <rect x="28" y="4" width="8" height="4" fill="#f7ecff"/>
  <rect x="24" y="8" width="4" height="4" fill="#f7ecff"/>
  <rect x="28" y="8" width="8" height="4" fill="#e8b6ff"/>
  <rect x="36" y="8" width="4" height="4" fill="#7d22d8"/>
  <rect x="20" y="12" width="4" height="4" fill="#f7ecff"/>
  <rect x="24" y="12" width="4" height="4" fill="#ffffff"/>
  <rect x="28" y="12" width="8" height="4" fill="#b735ff"/>
  <rect x="36" y="12" width="8" height="4" fill="#831de0"/>
  <rect x="44" y="12" width="4" height="4" fill="#180920"/>
  <rect x="16" y="16" width="4" height="4" fill="#f7ecff"/>
  <rect x="20" y="16" width="4" height="4" fill="#ffffff"/>
  <rect x="24" y="16" width="8" height="4" fill="#f1d8ff"/>
  <rect x="32" y="16" width="8" height="4" fill="#c63cff"/>
  <rect x="40" y="16" width="8" height="4" fill="#8e23f0"/>
  <rect x="48" y="16" width="4" height="4" fill="#180920"/>
  <rect x="12" y="20" width="4" height="4" fill="#180920"/>
  <rect x="16" y="20" width="4" height="4" fill="#ffffff"/>
  <rect x="20" y="20" width="4" height="4" fill="#ffffff"/>
  <rect x="24" y="20" width="8" height="4" fill="#f7ecff"/>
  <rect x="32" y="20" width="8" height="4" fill="#c23aff"/>
  <rect x="40" y="20" width="8" height="4" fill="#8f24f2"/>
  <rect x="48" y="20" width="4" height="4" fill="#5b149a"/>
  <rect x="52" y="20" width="4" height="4" fill="#180920"/>
  <rect x="8" y="24" width="4" height="4" fill="#180920"/>
  <rect x="12" y="24" width="4" height="4" fill="#fcf4ff"/>
  <rect x="16" y="24" width="4" height="4" fill="#ffffff"/>
  <rect x="20" y="24" width="4" height="4" fill="#f7ecff"/>
  <rect x="24" y="24" width="8" height="4" fill="#d95aff"/>
  <rect x="32" y="24" width="8" height="4" fill="#bc32ff"/>
  <rect x="40" y="24" width="8" height="4" fill="#8820e8"/>
  <rect x="48" y="24" width="8" height="4" fill="#6016a8"/>
  <rect x="56" y="24" width="4" height="4" fill="#180920"/>
  <rect x="4" y="28" width="4" height="4" fill="#180920"/>
  <rect x="8" y="28" width="4" height="4" fill="#d44aff"/>
  <rect x="12" y="28" width="4" height="4" fill="#f7ecff"/>
  <rect x="16" y="28" width="4" height="4" fill="#ffffff"/>
  <rect x="20" y="28" width="4" height="4" fill="#e9bcff"/>
  <rect x="24" y="28" width="8" height="4" fill="#cf45ff"/>
  <rect x="32" y="28" width="8" height="4" fill="#b328ff"/>
  <rect x="40" y="28" width="8" height="4" fill="#8922e6"/>
  <rect x="48" y="28" width="8" height="4" fill="#6417aa"/>
  <rect x="56" y="28" width="4" height="4" fill="#180920"/>
  <rect x="0" y="32" width="4" height="4" fill="#180920"/>
  <rect x="4" y="32" width="4" height="4" fill="#b522f5"/>
  <rect x="8" y="32" width="4" height="4" fill="#cf45ff"/>
  <rect x="12" y="32" width="4" height="4" fill="#e879ff"/>
  <rect x="16" y="32" width="4" height="4" fill="#f4d7ff"/>
  <rect x="20" y="32" width="4" height="4" fill="#d95aff"/>
  <rect x="24" y="32" width="8" height="4" fill="#bd2bff"/>
  <rect x="32" y="32" width="8" height="4" fill="#a31df1"/>
  <rect x="40" y="32" width="8" height="4" fill="#7f1ad5"/>
  <rect x="48" y="32" width="8" height="4" fill="#5b149a"/>
  <rect x="56" y="32" width="4" height="4" fill="#39105f"/>
  <rect x="60" y="32" width="4" height="4" fill="#180920"/>
  <rect x="4" y="36" width="4" height="4" fill="#180920"/>
  <rect x="8" y="36" width="8" height="4" fill="#b626f8"/>
  <rect x="16" y="36" width="8" height="4" fill="#cf45ff"/>
  <rect x="24" y="36" width="8" height="4" fill="#bd2bff"/>
  <rect x="32" y="36" width="8" height="4" fill="#a31df1"/>
  <rect x="40" y="36" width="8" height="4" fill="#7617c8"/>
  <rect x="48" y="36" width="8" height="4" fill="#4a0f81"/>
  <rect x="56" y="36" width="4" height="4" fill="#180920"/>
  <rect x="8" y="40" width="4" height="4" fill="#180920"/>
  <rect x="12" y="40" width="8" height="4" fill="#9823d7"/>
  <rect x="20" y="40" width="12" height="4" fill="#be30ff"/>
  <rect x="32" y="40" width="8" height="4" fill="#9f1de8"/>
  <rect x="40" y="40" width="8" height="4" fill="#6416ad"/>
  <rect x="48" y="40" width="4" height="4" fill="#180920"/>
  <rect x="12" y="44" width="4" height="4" fill="#180920"/>
  <rect x="16" y="44" width="8" height="4" fill="#8f22ce"/>
  <rect x="24" y="44" width="8" height="4" fill="#b935ff"/>
  <rect x="32" y="44" width="8" height="4" fill="#8d1dda"/>
  <rect x="40" y="44" width="4" height="4" fill="#4c1185"/>
  <rect x="44" y="44" width="4" height="4" fill="#180920"/>
  <rect x="16" y="48" width="4" height="4" fill="#180920"/>
  <rect x="20" y="48" width="8" height="4" fill="#8120c0"/>
  <rect x="28" y="48" width="4" height="4" fill="#a729f2"/>
  <rect x="32" y="48" width="8" height="4" fill="#7118bd"/>
  <rect x="40" y="48" width="4" height="4" fill="#180920"/>
  <rect x="20" y="52" width="4" height="4" fill="#180920"/>
  <rect x="24" y="52" width="4" height="4" fill="#701bac"/>
  <rect x="28" y="52" width="4" height="4" fill="#8d20df"/>
  <rect x="32" y="52" width="4" height="4" fill="#5f159d"/>
  <rect x="36" y="52" width="4" height="4" fill="#180920"/>
  <rect x="24" y="56" width="4" height="4" fill="#180920"/>
  <rect x="28" y="56" width="4" height="4" fill="#6416b0"/>
  <rect x="32" y="56" width="4" height="4" fill="#180920"/>
  <rect x="28" y="60" width="4" height="4" fill="#180920"/>
</svg>
