<svg xmlns="http://www.w3.org/2000/svg" viewBox="0 0 512 512" shape-rendering="crispEdges">
  <rect width="512" height="512" rx="96" fill="#080810"/>
  <rect x="224" y="48" width="64" height="32" fill="#ede9fe"/>
  <rect x="192" y="80" width="32" height="32" fill="#ede9fe"/>
  <rect x="224" y="80" width="96" height="32" fill="#c084fc"/>
  <rect x="320" y="80" width="32" height="32" fill="#5b21b6"/>
  <rect x="160" y="112" width="32" height="32" fill="#ede9fe"/>
  <rect x="192" y="112" width="64" height="32" fill="#c084fc"/>
  <rect x="256" y="112" width="96" height="32" fill="#a855f7"/>
  <rect x="352" y="112" width="32" height="32" fill="#5b21b6"/>
  <rect x="128" y="144" width="32" height="32" fill="#ede9fe"/>
  <rect x="160" y="144" width="96" height="32" fill="#c084fc"/>
  <rect x="256" y="144" width="128" height="32" fill="#7c3aed"/>
  <rect x="384" y="144" width="32" height="32" fill="#4c1d95"/>
  <rect x="96" y="176" width="32" height="32" fill="#ede9fe"/>
  <rect x="128" y="176" width="128" height="32" fill="#c084fc"/>
  <rect x="256" y="176" width="160" height="32" fill="#7c3aed"/>
  <rect x="416" y="176" width="32" height="32" fill="#4c1d95"/>
  <rect x="96" y="208" width="32" height="32" fill="#ede9fe"/>
  <rect x="128" y="208" width="128" height="32" fill="#c084fc"/>
  <rect x="256" y="208" width="160" height="32" fill="#7c3aed"/>
  <rect x="416" y="208" width="32" height="32" fill="#4c1d95"/>
  <rect x="128" y="240" width="32" height="32" fill="#ede9fe"/>
  <rect x="160" y="240" width="96" height="32" fill="#c084fc"/>
  <rect x="256" y="240" width="128" height="32" fill="#7c3aed"/>
  <rect x="384" y="240" width="32" height="32" fill="#4c1d95"/>
  <rect x="160" y="272" width="32" height="32" fill="#ede9fe"/>
  <rect x="192" y="272" width="64" height="32" fill="#c084fc"/>
  <rect x="256" y="272" width="96" height="32" fill="#7c3aed"/>
  <rect x="352" y="272" width="32" height="32" fill="#4c1d95"/>
  <rect x="192" y="304" width="32" height="32" fill="#ede9fe"/>
  <rect x="224" y="304" width="32" height="32" fill="#c084fc"/>
  <rect x="256" y="304" width="64" height="32" fill="#7c3aed"/>
  <rect x="320" y="304" width="32" height="32" fill="#4c1d95"/>
  <rect x="224" y="336" width="32" height="32" fill="#c084fc"/>
  <rect x="256" y="336" width="32" height="32" fill="#7c3aed"/>
  <rect x="288" y="336" width="32" height="32" fill="#4c1d95"/>
  <rect x="224" y="368" width="32" height="32" fill="#c084fc"/>
  <rect x="256" y="368" width="32" height="32" fill="#7c3aed"/>
  <rect x="256" y="400" width="32" height="32" fill="#5b21b6"/>
</svg>
