<svg xmlns="http://www.w3.org/2000/svg" viewBox="0 0 16 16" shape-rendering="crispEdges">
  <path fill="#0a0614" d="M7 0h2v1h2v1h1v1h1v1h1v2h1v4h-1v2h-1v1h-1v1h-1v1H9v1H7v-1H5v-1H4v-1H3v-1H2v-2H1V6h1V4h1V3h1V2h1V1h2z"/>
  <path fill="#fbf2ff" d="M7 1h2v1h2v1h1v1h1v2h1v4h-1v2h-1v1h-1v1H9v1H7v-1H5v-1H4v-1H3v-2H2V6h1V4h1V3h1V2h2z"/>
  <path fill="#ff66f3" d="M7 2h1v11H6v-1H5v-1H4V9H3V7h1V5h1V4h1V3h1z"/>
  <path fill="#cb72ff" d="M5 5h3v7H6v-1H5V9H4V7h1z"/>
  <path fill="#8b35ff" d="M8 2h1v1h1v1h1v1h1v2h1v2h-1v2h-1v1h-1v1H8z"/>
  <path fill="#5b19d8" d="M10 5h1v2h1v2h-1v2h-1v1H9V8h1z"/>
  <path fill="#ffffff" d="M6 2h2v2H5V3h1zM4 5h3v2H3V6h1zM7 13h2v1H7z"/>
  <path fill="#5deaff" d="M8 5h2v6H8z"/>
  <path fill="#f7d8ff" d="M6 8h2v3H5V9h1z"/>
  <path fill="#ffffff" d="M12 5h1v1h-1zM5 1h1v1H5zM3 8h1v1H3z"/>
</svg>
